HIERARCHY
ROOT Hips
{
	OFFSET	0.00	0.00	0.00
	CHANNELS 6 Xposition Yposition Zposition Zrotation Xrotation Yrotation
	JOINT LeftUpLeg
	{
		OFFSET	 0.126116	-0.014019	-0.065224
		CHANNELS 3 Zrotation Xrotation Yrotation
		JOINT LeftLeg
		{
			OFFSET	 0.000000	 0.000000	 0.569914
			CHANNELS 3 Zrotation Xrotation Yrotation
			JOINT LeftFoot
			{
				OFFSET	 0.000000	 0.000000	 0.544423
				CHANNELS 3 Zrotation Xrotation Yrotation
				JOINT LeftToeBase
				{
					OFFSET	 0.000000	 0.000000	 0.207117
					CHANNELS 3 Zrotation Xrotation Yrotation
					End Site
					{
						OFFSET	 0.000000	 0.000000	 0.207117
					}
				}
			}
		}
	}
	JOINT RightUpLeg
	{
		OFFSET	-0.124023	-0.008373	-0.065224
		CHANNELS 3 Zrotation Xrotation Yrotation
		JOINT RightLeg
		{
			OFFSET	 0.000000	 0.000000	 0.570047
			CHANNELS 3 Zrotation Xrotation Yrotation
			JOINT RightFoot
			{
				OFFSET	 0.000000	 0.000000	 0.544354
				CHANNELS 3 Zrotation Xrotation Yrotation
				JOINT RightToeBase
				{
					OFFSET	 0.000000	 0.000000	 0.207540
					CHANNELS 3 Zrotation Xrotation Yrotation
					End Site
					{
						OFFSET	 0.000000	 0.000000	 0.207540
					}
				}
			}
		}
	}
	JOINT Spine
	{
		OFFSET	 0.000184	-0.007763	 0.117403
		CHANNELS 3 Zrotation Xrotation Yrotation
		JOINT Spine1
		{
			OFFSET	 0.000000	 0.000000	 0.137269
			CHANNELS 3 Zrotation Xrotation Yrotation
			JOINT Spine2
			{
				OFFSET	 0.000000	 0.000000	 0.156879
				CHANNELS 3 Zrotation Xrotation Yrotation
				JOINT LeftShoulder
				{
					OFFSET	 0.080501	-0.002496	 0.160144
					CHANNELS 3 Zrotation Xrotation Yrotation
					JOINT LeftArm
					{
						OFFSET	 0.000000	 0.000000	 0.164363
						CHANNELS 3 Zrotation Xrotation Yrotation
						JOINT LeftForeArm
						{
							OFFSET	 0.000000	 0.000000	 0.364576
							CHANNELS 3 Zrotation Xrotation Yrotation
							JOINT LeftHand
							{
								OFFSET	 0.000000	 0.000000	 0.360812
								CHANNELS 3 Zrotation Xrotation Yrotation
								JOINT LeftHandIndex1
								{
									OFFSET	 0.000000	 0.000000	 0.086006
									CHANNELS 3 Zrotation Xrotation Yrotation
									JOINT LeftHandIndex2
									{
										OFFSET	 0.000000	 0.000000	 0.047236
										CHANNELS 3 Zrotation Xrotation Yrotation
										JOINT LeftHandIndex3
										{
											OFFSET	-0.004284	-0.000551	 0.038166
											CHANNELS 3 Zrotation Xrotation Yrotation
											End Site
											{
												OFFSET	-0.004284	-0.000551	 0.038166
											}
										}
									}
								}
							}
						}
					}
				}
				JOINT Neck
				{
					OFFSET	 0.000000	 0.000000	 0.176489
					CHANNELS 3 Zrotation Xrotation Yrotation
					JOINT Head
					{
						OFFSET	 0.000000	-0.001747	 0.077940
						CHANNELS 3 Zrotation Xrotation Yrotation
						End Site
						{
							OFFSET	 0.000000	-0.001747	 0.077940
						}
					}
				}
				JOINT RightShoulder
				{
					OFFSET	-0.080363	 0.000306	 0.159706
					CHANNELS 3 Zrotation Xrotation Yrotation
					JOINT RightArm
					{
						OFFSET	 0.000000	 0.000000	 0.164196
						CHANNELS 3 Zrotation Xrotation Yrotation
						JOINT RightForeArm
						{
							OFFSET	 0.000000	 0.000000	 0.365611
							CHANNELS 3 Zrotation Xrotation Yrotation
							JOINT RightHand
							{
								OFFSET	 0.000000	 0.000000	 0.360648
								CHANNELS 3 Zrotation Xrotation Yrotation
								JOINT RightHandIndex1
								{
									OFFSET	 0.000000	 0.000000	 0.069977
									CHANNELS 3 Zrotation Xrotation Yrotation
									JOINT RightHandIndex2
									{
										OFFSET	 0.000000	 0.000000	 0.052305
										CHANNELS 3 Zrotation Xrotation Yrotation
										JOINT RightHandIndex3
										{
											OFFSET	 0.009002	-0.000782	 0.042196
											CHANNELS 3 Zrotation Xrotation Yrotation
											End Site
											{
												OFFSET	 0.009002	-0.000782	 0.042196
											}
										}
									}
								}
							}
						}
					}
				}
			}
		}
	}
}
MOTION
Frames:    11
Frame Time: 0.03333334
-0.000649	 0.020972	 1.252537	 0.003099	-0.002152	-0.181001	 18.511170	-8.613958	 175.737700	 1.265433	-22.857750	-1.389612	-15.268170	 74.864260	 9.828802	-2.385833	 28.452760	 0.000004	-18.550930	-9.274283	-175.494500	-1.238219	-23.528410	 1.408898	 15.027000	 75.159670	-9.682381	 2.384658	 28.388730	 0.000004	-3.525087	 2.911271	-0.129493	 2.151141	 3.094972	 0.881021	-6.482072	-3.751339	-1.360227	-91.776210	 78.527430	-180.000000	 49.347820	 34.798930	-59.273950	-11.648820	 0.327353	-2.402011	-29.815050	-0.494685	-4.353534	-2.635965	 4.993658	 6.788941	-5.165319	 0.784187	 3.516649	-5.225038	 0.466231	 0.424329	-0.000002	-3.783157	-0.089647	-6.334056	 4.974460	 0.275401	 89.782140	 78.203890	 179.999900	-60.609390	 40.475060	 57.099190	 11.279120	 0.350737	 2.417795	 29.148840	-1.448454	 8.831873	 6.112037	 4.509576	-0.364401	 4.968462	 1.518543	-9.347576	 5.168945	 0.703820	 2.021906
-0.000651	 0.022010	 1.237026	 0.003791	-0.001727	-0.169322	 22.041370	-12.404720	 175.744800	 1.040510	-29.890770	-1.894993	-20.144870	 77.959500	 14.853910	-2.385833	 28.452760	 0.000004	-22.080680	-12.991550	-175.533700	-1.015970	-30.394480	 1.898206	 19.766740	 78.201810	-14.556200	 2.384658	 28.388730	 0.000004	-10.336930	 3.029950	-0.143473	 2.089062	 2.675338	 0.880869	-6.299525	-3.225285	-1.286087	-91.776120	 78.527470	 179.999900	 48.671980	 34.308830	-58.402120	-14.718260	 0.655837	-4.112876	-30.171110	-0.435649	-4.356076	-2.635965	 4.993658	 6.788941	-5.165319	 0.784187	 3.516649	-5.225038	 0.466231	 0.424329	-0.000002	-3.783157	-0.089647	-6.178229	 5.247742	 0.283390	 89.782120	 78.203890	 180.000000	-59.243610	 39.586530	 57.866580	 13.737810	 0.674866	 4.129237	 29.591870	-1.794524	 8.594673	 6.112037	 4.509576	-0.364401	 4.968462	 1.518543	-9.347576	 5.168945	 0.703820	 2.021906
-0.000640	 0.023449	 1.222344	 0.005015	 0.000347	-0.147708	 25.478160	-15.439470	 175.707500	 0.801578	-35.338780	-2.337782	-25.793780	 80.214520	 20.593140	-2.385833	 28.452760	 0.000004	-25.560160	-15.993310	-175.558000	-0.780383	-35.745280	 2.329490	 25.148730	 80.433570	-20.042900	 2.384658	 28.388730	 0.000004	-19.665780	 3.191349	-0.154317	 1.943189	 2.097829	 0.852490	-5.863928	-2.512274	-1.152121	-91.776250	 78.527420	-180.000000	 47.872920	 33.769450	-57.440870	-19.104370	 1.451303	-6.515526	-30.694860	-0.348916	-4.358819	-2.635965	 4.993658	 6.788941	-5.165319	 0.784187	 3.516649	-5.225038	 0.466231	 0.424329	-0.000002	-3.783157	-0.089647	-5.778674	 5.643813	 0.285065	 89.782080	 78.203900	-180.000000	-56.860960	 38.114910	 60.530590	 16.994500	 1.467796	 6.543424	 30.337890	-2.425143	 8.196571	 6.112037	 4.509576	-0.364401	 4.968462	 1.518543	-9.347576	 5.168945	 0.703820	 2.021906
-0.000591	 0.024979	 1.223472	 0.006235	 0.002751	-0.119543	 25.482470	-15.347270	 175.686500	 0.814140	-35.086060	-2.315987	-25.335890	 80.091010	 20.125610	-2.385833	 28.452760	 0.000004	-25.586700	-15.920290	-175.615600	-0.794542	-35.460680	 2.305159	 24.375180	 80.251190	-19.250270	 2.384658	 28.388730	 0.000004	-28.859290	 3.360693	-0.148148	 1.695623	 1.490181	 0.775054	-5.119233	-1.775323	-0.965344	-91.776190	 78.527490	-180.000000	 47.364770	 33.586000	-57.097950	-23.947870	 2.787151	-9.082229	-31.308420	-0.247652	-4.360513	-2.635965	 4.993658	 6.788941	-5.165319	 0.784187	 3.516649	-5.225038	 0.466231	 0.424329	-0.000002	-3.783157	-0.089647	-5.069384	 6.086523	 0.269674	 89.782160	 78.203920	 179.999900	-52.667790	 35.760570	 60.972950	 19.310250	 7.853483	 16.282620	 30.804240	-3.332930	 7.490189	 6.112037	 4.509576	-0.364401	 4.968462	 1.518543	-9.347576	 5.168945	 0.703820	 2.021906
-0.000527	 0.026456	 1.224357	 0.006787	 0.004496	-0.090525	 25.486900	-15.258800	 175.664900	 0.826050	-34.843600	-2.295201	-24.905500	 79.972510	 19.685740	-2.385833	 28.452760	 0.000004	-25.612080	-15.845890	-175.672400	-0.808295	-35.180510	 2.281374	 23.648290	 80.070960	-18.504890	 2.384658	 28.388730	 0.000004	-35.349680	 3.501708	-0.120912	 1.379581	 0.984313	 0.652569	-4.166004	-1.171902	-0.758940	-91.776180	 78.527470	 180.000000	 46.836480	 33.411370	-56.635880	-28.397580	 4.400154	-11.264780	-31.807200	-0.136162	-4.343276	-2.635965	 4.993658	 6.788941	-5.165319	 0.784187	 3.516649	-5.225038	 0.466231	 0.424329	-0.000002	-3.783157	-0.089647	-4.142140	 6.476366	 0.234438	 89.782090	 78.203900	-180.000000	-48.051540	 33.293380	 63.654490	 19.675470	 13.043150	 23.203890	 30.340790	-4.515545	 6.150427	 6.112037	 4.509576	-0.364401	 4.968462	 1.518543	-9.347576	 5.168945	 0.703820	 2.021906
-0.000444	 0.027895	 1.224971	 0.006324	 0.005066	-0.061868	 25.492230	-15.172410	 175.643900	 0.837391	-34.610080	-2.275297	-24.497540	 79.858660	 19.268330	-2.385833	 28.452760	 0.000004	-25.635780	-15.770320	-175.727800	-0.821712	-34.903290	 2.257998	 22.958090	 79.891780	-17.796500	 2.384658	 28.388730	 0.000004	-38.766350	 3.618537	-0.104914	 1.005477	 0.580545	 0.547612	-3.038175	-0.704345	-0.565939	-91.776200	 78.527430	 180.000000	 46.323290	 33.267940	-56.116690	-32.256020	 6.147003	-13.056060	-32.362480	-0.034432	-4.334895	-2.635965	 4.993658	 6.788941	-5.165319	 0.784187	 3.516649	-5.225038	 0.466231	 0.424329	-0.000002	-3.783157	-0.089647	-3.030972	 6.791770	 0.179882	 89.782050	 78.203890	-180.000000	-43.603150	 31.044950	 68.556330	 19.545780	 15.607770	 26.142280	 29.348810	-5.517398	 4.581857	 6.112037	 4.509576	-0.364401	 4.968462	 1.518543	-9.347576	 5.168945	 0.703820	 2.021906
-0.000344	 0.029246	 1.225365	 0.004647	 0.004126	-0.034913	 25.498740	-15.088950	 175.624600	 0.847976	-34.389680	-2.256610	-24.117270	 79.751660	 18.878700	-2.385833	 28.452760	 0.000004	-25.657020	-15.695290	-175.780000	-0.834587	-34.633810	 2.235431	 22.311870	 79.716750	-17.132640	 2.384658	 28.388730	 0.000004	-38.939910	 3.689140	-0.028914	 0.597276	 0.326995	 0.329429	-1.804847	-0.407547	-0.330186	-91.776140	 78.527430	 180.000000	 45.818270	 33.131900	-55.518500	-35.499440	 7.852521	-14.444060	-32.899480	 0.063804	-4.324611	-2.635965	 4.993658	 6.788941	-5.165319	 0.784187	 3.516649	-5.225038	 0.466231	 0.424329	-0.000002	-3.783157	-0.089647	-1.806929	 7.006642	 0.110616	 89.782150	 78.203870	 180.000000	-39.183690	 28.553400	 74.683360	 19.248420	 16.566990	 26.727110	 27.705560	-6.167282	 2.844869	 6.112037	 4.509576	-0.364401	 4.968462	 1.518543	-9.347576	 5.168945	 0.703820	 2.021906
-0.000221	 0.030592	 1.225633	 0.001561	 0.001684	-0.008431	 25.504450	-15.032790	 175.607300	 0.855549	-34.230320	-2.243169	-23.823340	 79.672970	 18.576620	-2.385833	 28.452760	 0.000004	-25.670470	-15.692750	-175.834600	-0.840290	-34.513150	 2.225374	 21.864750	 79.608100	-16.671230	 2.384658	 28.388730	 0.000004	-35.802600	 3.721857	 0.060465	 0.146396	 0.209962	 0.082848	-0.442362	-0.269005	-0.080974	-91.776170	 78.527470	 180.000000	 45.327670	 33.027070	-54.875560	-38.279210	 9.480810	-15.528810	-33.452570	 0.164565	-4.311964	-2.635965	 4.993658	 6.788941	-5.165319	 0.784187	 3.516649	-5.225038	 0.466231	 0.424329	-0.000002	-3.783157	-0.089647	-0.448882	 7.112461	 0.027883	 89.782200	 78.203900	 179.999900	-34.826740	 25.925500	 80.930590	 18.473630	 16.604450	 26.037120	 25.544010	-6.459695	 0.949059	 6.112037	 4.509576	-0.364401	 4.968462	 1.518543	-9.347576	 5.168945	 0.703820	 2.021906
-0.000120	 0.031930	 1.225753	-0.002554	 0.002688	 0.030693	 25.501290	-15.060620	 175.580500	 0.855723	-34.226770	-2.242869	-23.750570	 79.664060	 18.500480	-2.385833	 28.452760	 0.000004	-25.682430	-15.725580	-175.900900	-0.842196	-34.472780	 2.222015	 21.540910	 79.536000	-16.336230	 2.384658	 28.388730	 0.000004	-29.751730	 3.712400	 0.142761	-0.296435	 0.235208	-0.177816	 0.899078	-0.300541	 0.169508	-91.776250	 78.527490	-180.000000	 44.873230	 32.921750	-54.190100	-40.371910	 10.805960	-16.273470	-33.987340	 0.260988	-4.298017	-2.635965	 4.993658	 6.788941	-5.165319	 0.784187	 3.516649	-5.225038	 0.466231	 0.424329	-0.000002	-3.783157	-0.089647	 0.889958	 7.091595	-0.055161	 89.782110	 78.203870	 180.000000	-30.206600	 22.989980	 88.258050	 17.840030	 14.492090	 22.127080	 22.905000	-6.282816	-0.877449	 6.112037	 4.509576	-0.364401	 4.968462	 1.518543	-9.347576	 5.168945	 0.703820	 2.021906
-0.000049	 0.033300	 1.225793	-0.004700	 0.004907	 0.067769	 25.495340	-15.101780	 175.555500	 0.854683	-34.248610	-2.244711	-23.714950	 79.665490	 18.462620	-2.385833	 28.452760	 0.000004	-25.694710	-15.776130	-175.966300	-0.842528	-34.465760	 2.221433	 21.263070	 79.479430	-16.048050	 2.384658	 28.388730	 0.000004	-21.227790	 3.663819	 0.220661	-0.724017	 0.398162	-0.420345	 2.192760	-0.494128	 0.413456	-91.776180	 78.527470	 180.000000	 44.470990	 32.842460	-53.509780	-41.832510	 11.781870	-16.754360	-34.519390	 0.355478	-4.282582	-2.635965	 4.993658	 6.788941	-5.165319	 0.784187	 3.516649	-5.225038	 0.466231	 0.424329	-0.000002	-3.783157	-0.089647	 2.178935	 6.952111	-0.132385	 89.782140	 78.203870	 180.000000	-25.376000	 18.668810	 95.039630	 16.641000	 11.657560	 16.916450	 19.136960	-5.483252	-2.596752	 6.112037	 4.509576	-0.364401	 4.968462	 1.518543	-9.347576	 5.168945	 0.703820	 2.021906
 0.000039	 0.034686	 1.225457	-0.005526	 0.005623	 0.096389	 25.484620	-15.197200	 175.539800	 0.847769	-34.393970	-2.256980	-23.847150	 79.723460	 18.595780	-2.385833	 28.452760	 0.000004	-25.701310	-15.890460	-176.026200	-0.836760	-34.587750	 2.231592	 21.141240	 79.483810	-15.918700	 2.384658	 28.388730	 0.000004	-10.919440	 3.571135	 0.242619	-1.117394	 0.705538	-0.534845	 3.381209	-0.849730	 0.602544	-91.776180	 78.527470	 180.000000	 44.116650	 32.752060	-52.793990	-42.634190	 12.331560	-17.001600	-35.049870	 0.447774	-4.265899	-2.635965	 4.993658	 6.788941	-5.165319	 0.784187	 3.516649	-5.225038	 0.466231	 0.424329	-0.000002	-3.783157	-0.089647	 3.358153	 6.709076	-0.196907	 89.782130	 78.203870	 180.000000	-18.314390	 14.579640	 98.437190	 13.659900	 12.182140	 17.184300	 15.808020	-4.438438	-3.937482	 6.112037	 4.509576	-0.364401	 4.968462	 1.518543	-9.347576	 5.168945	 0.703820	 2.021906
